# xmcd
#
# Track frame offsets:
#	150
#	15624
#	26751
#	44868
#	57799
#	75887
#	95530
#	111911
#	130483
#	149041
#	165060
#	184027
#	208731
#	231478
#
# Disc length: 3450 seconds
#
# Revision: 1
# Processed by: cddbd v1.5.2PL0 Copyright (c) Steve Scherf et al.
# Submitted via: audiograbber 1.83.01
#
DISCID=c20d780e
DTITLE=Whiskey Myers - Whiskey Myers
DYEAR=2019
DGENRE=Country
TTITLE0=Die Rockin
TTITLE1=Mona Lisa
TTITLE2=Rolling Stone
TTITLE3=Bitch
TTITLE4=Gasoline
TTITLE5=Bury My Bones
TTITLE6=Glitter Ain't Gold
TTITLE7=Houston County Sky
TTITLE8=Little More Money
TTITLE9=California to Caroline
TTITLE10=Kentucky Gold
TTITLE11=Running
TTITLE12=Hammer
TTITLE13=Bad Weather
EXTD=
EXTT0=
EXTT1=
EXTT2=
EXTT3=
EXTT4=
EXTT5=
EXTT6=
EXTT7=
EXTT8=
EXTT9=
EXTT10=
EXTT11=
EXTT12=
EXTT13=
PLAYORDER=
